<?xml version="1.0" encoding="utf-8"?>
<svg xmlns="http://www.w3.org/2000/svg" height="540.000000pt" preserveAspectRatio="xMidYMid meet" version="1.0" viewBox="0 0 540.000000 540.000000" width="540.000000pt">

<g fill="#000000" stroke="none" transform="translate(0.000000,540.000000) scale(0.100000,-0.100000)">
<path d="M535 3573 c-190 -42 -265 -82 -373 -198 -59 -63 -120 -169 -146 -254&#xA;-16 -55 -14 -812 2 -871 46 -160 173 -310 327 -385 119 -58 179 -65 540 -65&#xA;350 0 419 8 524 57 132 63 239 168 301 298 57 117 62 169 58 583 -4 354 -4&#xA;358 -29 423 -86 223 -259 367 -493 408 -57 11 -668 14 -711 4z m677 -304 c104&#xA;-22 188 -87 231 -178 21 -45 22 -56 22 -406 0 -334 -1 -363 -19 -395 -50 -93&#xA;-126 -155 -218 -178 -31 -8 -150 -12 -343 -12 -193 0 -312 4 -343 12 -102 25&#xA;-186 100 -224 200 -18 48 -19 77 -18 372 0 191 5 337 11 361 29 109 129 202&#xA;242 225 65 12 598 12 659 -1z"/>
<path d="M1897 3463 c-4 -3 -7 -250 -7 -547 0 -662 2 -681 106 -838 70 -104&#xA;183 -196 294 -236 55 -20 180 -42 237 -42 41 0 54 4 63 19 15 29 13 256 -2&#xA;268 -7 6 -45 13 -85 16 -40 3 -94 15 -120 27 -56 25 -124 88 -156 145 -22 40&#xA;-22 41 -25 604 -2 389 -6 569 -14 578 -8 10 -47 13 -148 13 -75 0 -140 -3&#xA;-143 -7z"/>
<path d="M2544 3457 c-3 -8 -3 -268 -1 -578 4 -605 4 -602 58 -719 104 -224&#xA;330 -367 565 -358 l79 3 0 145 0 145 -81 7 c-109 9 -172 37 -233 104 -88 96&#xA;-85 72 -91 704 l-5 555 -143 3 c-114 2 -143 0 -148 -11z"/>
<path d="M3374 3457 c-2 -7 -3 -74 -2 -148 l3 -134 145 0 145 0 3 139 c2 105&#xA;-1 141 -10 148 -7 4 -73 8 -146 8 -100 0 -134 -3 -138 -13z"/>
<path d="M3382 2682 c-10 -7 -12 -102 -10 -443 l3 -434 145 0 145 0 3 430 c2&#xA;395 1 431 -15 443 -19 14 -249 17 -271 4z"/>
<path d="M3802 2682 c-10 -7 -12 -102 -10 -443 l3 -434 138 -3 c195 -4 320 26&#xA;432 102 63 43 171 162 203 224 56 111 72 193 72 383 0 143 -2 168 -16 173 -20&#xA;8 -248 8 -268 0 -14 -5 -16 -29 -16 -162 0 -175 -9 -214 -67 -293 -40 -53&#xA;-124 -112 -156 -107 l-22 3 -3 270 c-2 240 -4 271 -19 283 -19 14 -249 17&#xA;-271 4z"/>
<path d="M5250 2684 c-139 -21 -200 -44 -301 -110 -75 -49 -124 -99 -174 -179&#xA;-74 -115 -96 -220 -93 -432 l3 -158 142 -3 c169 -3 151 -25 155 193 3 141 5&#xA;153 31 207 54 111 161 175 310 185 l77 6 0 148 0 149 -62 -1 c-35 -1 -74 -3&#xA;-88 -5z"/>
</g>
</svg>